<?xml version="1.0" encoding="UTF-8" standalone="no"?>
<!DOCTYPE svg PUBLIC "-//W3C//DTD SVG 1.1//EN"
 "http://www.w3.org/Graphics/SVG/1.1/DTD/svg11.dtd">
<!-- Generated by graphviz version 2.43.0 (0)
 -->
<!-- Title: %3 Pages: 1 -->
<svg width="1041pt" height="1229pt"
 viewBox="0.00 0.00 1041.36 1229.03" xmlns="http://www.w3.org/2000/svg" xmlns:xlink="http://www.w3.org/1999/xlink">
<g id="graph0" class="graph" transform="scale(1 1) rotate(0) translate(4 1225.03)">
<title>%3</title>
<polygon fill="white" stroke="transparent" points="-4,4 -4,-1225.03 1037.36,-1225.03 1037.36,4 -4,4"/>
<!-- UserInput -->
<g id="node1" class="node">
<title>UserInput</title>
<ellipse fill="none" stroke="black" cx="61.09" cy="-585.87" rx="61.19" ry="18"/>
<text text-anchor="middle" x="61.09" y="-582.17" font-family="Times,serif" font-size="14.00">User Input</text>
</g>
<!-- AgentA -->
<g id="node2" class="node">
<title>AgentA</title>
<ellipse fill="none" stroke="black" cx="206.28" cy="-892.87" rx="47.39" ry="18"/>
<text text-anchor="middle" x="206.28" y="-889.17" font-family="Times,serif" font-size="14.00">Agent A</text>
</g>
<!-- UserInput&#45;&gt;AgentA -->
<g id="edge1" class="edge">
<title>UserInput&#45;&gt;AgentA</title>
<path fill="none" stroke="black" d="M70.41,-603.7C94.43,-655.21 164.03,-804.42 192.71,-865.9"/>
<polygon fill="black" stroke="black" points="189.55,-867.41 196.94,-874.99 195.89,-864.45 189.55,-867.41"/>
</g>
<!-- AgentB -->
<g id="node3" class="node">
<title>AgentB</title>
<ellipse fill="none" stroke="black" cx="206.28" cy="-350.87" rx="48.19" ry="18"/>
<text text-anchor="middle" x="206.28" y="-347.17" font-family="Times,serif" font-size="14.00">Agent B</text>
</g>
<!-- UserInput&#45;&gt;AgentB -->
<g id="edge2" class="edge">
<title>UserInput&#45;&gt;AgentB</title>
<path fill="none" stroke="black" d="M73.09,-567.82C98.26,-526.52 160.1,-425.03 189.4,-376.94"/>
<polygon fill="black" stroke="black" points="192.43,-378.7 194.64,-368.34 186.45,-375.06 192.43,-378.7"/>
</g>
<!-- Memory -->
<g id="node4" class="node">
<title>Memory</title>
<ellipse fill="none" stroke="black" cx="791.98" cy="-612.87" rx="76.89" ry="18"/>
<text text-anchor="middle" x="791.98" y="-609.17" font-family="Times,serif" font-size="14.00">Memory Node</text>
</g>
<!-- AgentA&#45;&gt;Memory -->
<g id="edge3" class="edge">
<title>AgentA&#45;&gt;Memory</title>
<path fill="none" stroke="black" d="M209.67,-910.88C217.71,-968.63 245.88,-1147.4 290.38,-1180.87 359.44,-1232.82 612.54,-1235.77 679.29,-1180.87 764.19,-1111.04 785.55,-745.79 789.97,-641"/>
<polygon fill="black" stroke="black" points="793.47,-641.01 790.38,-630.88 786.48,-640.73 793.47,-641.01"/>
</g>
<!-- AgentA_R1 -->
<g id="node6" class="node">
<title>AgentA_R1</title>
<ellipse fill="none" stroke="black" cx="484.83" cy="-1144.87" rx="194.41" ry="26.74"/>
<text text-anchor="middle" x="484.83" y="-1148.67" font-family="Times,serif" font-size="14.00">AgentA (R1)</text>
<text text-anchor="middle" x="484.83" y="-1133.67" font-family="Times,serif" font-size="14.00">Homework should be banned beca...</text>
</g>
<!-- AgentA&#45;&gt;AgentA_R1 -->
<g id="edge6" class="edge">
<title>AgentA&#45;&gt;AgentA_R1</title>
<path fill="none" stroke="black" d="M208.52,-911.03C212.4,-953.01 228.13,-1057.1 290.38,-1108.87 298.06,-1115.26 306.52,-1120.66 315.46,-1125.21"/>
<polygon fill="black" stroke="black" points="314.02,-1128.4 324.56,-1129.49 317,-1122.07 314.02,-1128.4"/>
</g>
<!-- AgentA_R2 -->
<g id="node8" class="node">
<title>AgentA_R2</title>
<ellipse fill="none" stroke="black" cx="484.83" cy="-1072.87" rx="188.6" ry="26.74"/>
<text text-anchor="middle" x="484.83" y="-1076.67" font-family="Times,serif" font-size="14.00">AgentA (R2)</text>
<text text-anchor="middle" x="484.83" y="-1061.67" font-family="Times,serif" font-size="14.00">Homework should be banned as i...</text>
</g>
<!-- AgentA&#45;&gt;AgentA_R2 -->
<g id="edge10" class="edge">
<title>AgentA&#45;&gt;AgentA_R2</title>
<path fill="none" stroke="black" d="M212.23,-910.82C221.78,-941.89 245.85,-1005.36 290.38,-1036.87 299.76,-1043.51 310.02,-1049.02 320.76,-1053.6"/>
<polygon fill="black" stroke="black" points="319.73,-1056.95 330.32,-1057.38 322.31,-1050.44 319.73,-1056.95"/>
</g>
<!-- AgentA_R3 -->
<g id="node10" class="node">
<title>AgentA_R3</title>
<ellipse fill="none" stroke="black" cx="484.83" cy="-1000.87" rx="181.04" ry="26.74"/>
<text text-anchor="middle" x="484.83" y="-1004.67" font-family="Times,serif" font-size="14.00">AgentA (R3)</text>
<text text-anchor="middle" x="484.83" y="-989.67" font-family="Times,serif" font-size="14.00">Homework is a valuable learnin...</text>
</g>
<!-- AgentA&#45;&gt;AgentA_R3 -->
<g id="edge14" class="edge">
<title>AgentA&#45;&gt;AgentA_R3</title>
<path fill="none" stroke="black" d="M221.97,-910.06C237.29,-926.8 262.87,-951.61 290.38,-964.87 304.01,-971.44 318.72,-976.81 333.72,-981.21"/>
<polygon fill="black" stroke="black" points="333.04,-984.65 343.61,-983.96 334.92,-977.91 333.04,-984.65"/>
</g>
<!-- AgentA_R4 -->
<g id="node12" class="node">
<title>AgentA_R4</title>
<ellipse fill="none" stroke="black" cx="484.83" cy="-928.87" rx="194.41" ry="26.74"/>
<text text-anchor="middle" x="484.83" y="-932.67" font-family="Times,serif" font-size="14.00">AgentA (R4)</text>
<text text-anchor="middle" x="484.83" y="-917.67" font-family="Times,serif" font-size="14.00">Homework should be banned beca...</text>
</g>
<!-- AgentA&#45;&gt;AgentA_R4 -->
<g id="edge18" class="edge">
<title>AgentA&#45;&gt;AgentA_R4</title>
<path fill="none" stroke="black" d="M251.41,-898.61C273.95,-901.55 302.84,-905.31 332.54,-909.18"/>
<polygon fill="black" stroke="black" points="332.27,-912.67 342.64,-910.49 333.17,-905.73 332.27,-912.67"/>
</g>
<!-- AgentA_R5 -->
<g id="node14" class="node">
<title>AgentA_R5</title>
<ellipse fill="none" stroke="black" cx="484.83" cy="-856.87" rx="194.41" ry="26.74"/>
<text text-anchor="middle" x="484.83" y="-860.67" font-family="Times,serif" font-size="14.00">AgentA (R5)</text>
<text text-anchor="middle" x="484.83" y="-845.67" font-family="Times,serif" font-size="14.00">Homework should be banned beca...</text>
</g>
<!-- AgentA&#45;&gt;AgentA_R5 -->
<g id="edge22" class="edge">
<title>AgentA&#45;&gt;AgentA_R5</title>
<path fill="none" stroke="black" d="M251.41,-887.13C273.95,-884.19 302.84,-880.43 332.54,-876.56"/>
<polygon fill="black" stroke="black" points="333.17,-880.01 342.64,-875.25 332.27,-873.07 333.17,-880.01"/>
</g>
<!-- AgentA_R6 -->
<g id="node16" class="node">
<title>AgentA_R6</title>
<ellipse fill="none" stroke="black" cx="484.83" cy="-784.87" rx="194.41" ry="26.74"/>
<text text-anchor="middle" x="484.83" y="-788.67" font-family="Times,serif" font-size="14.00">AgentA (R6)</text>
<text text-anchor="middle" x="484.83" y="-773.67" font-family="Times,serif" font-size="14.00">Homework should be banned beca...</text>
</g>
<!-- AgentA&#45;&gt;AgentA_R6 -->
<g id="edge26" class="edge">
<title>AgentA&#45;&gt;AgentA_R6</title>
<path fill="none" stroke="black" d="M221.97,-875.68C237.29,-858.94 262.87,-834.13 290.38,-820.87 302.83,-814.87 316.17,-809.87 329.81,-805.71"/>
<polygon fill="black" stroke="black" points="331.15,-808.96 339.78,-802.81 329.21,-802.24 331.15,-808.96"/>
</g>
<!-- AgentA_R7 -->
<g id="node18" class="node">
<title>AgentA_R7</title>
<ellipse fill="none" stroke="black" cx="484.83" cy="-712.87" rx="182.37" ry="26.74"/>
<text text-anchor="middle" x="484.83" y="-716.67" font-family="Times,serif" font-size="14.00">AgentA (R7)</text>
<text text-anchor="middle" x="484.83" y="-701.67" font-family="Times,serif" font-size="14.00">Homework is detrimental to stu...</text>
</g>
<!-- AgentA&#45;&gt;AgentA_R7 -->
<g id="edge30" class="edge">
<title>AgentA&#45;&gt;AgentA_R7</title>
<path fill="none" stroke="black" d="M212.23,-874.92C221.78,-843.85 245.85,-780.38 290.38,-748.87 300.39,-741.79 311.4,-735.98 322.93,-731.24"/>
<polygon fill="black" stroke="black" points="324.2,-734.5 332.28,-727.65 321.69,-727.96 324.2,-734.5"/>
</g>
<!-- AgentA_R8 -->
<g id="node20" class="node">
<title>AgentA_R8</title>
<ellipse fill="none" stroke="black" cx="484.83" cy="-640.87" rx="179.71" ry="26.74"/>
<text text-anchor="middle" x="484.83" y="-644.67" font-family="Times,serif" font-size="14.00">AgentA (R8)</text>
<text text-anchor="middle" x="484.83" y="-629.67" font-family="Times,serif" font-size="14.00">Homework is a crucial educatio...</text>
</g>
<!-- AgentA&#45;&gt;AgentA_R8 -->
<g id="edge34" class="edge">
<title>AgentA&#45;&gt;AgentA_R8</title>
<path fill="none" stroke="black" d="M208.52,-874.71C212.4,-832.73 228.13,-728.64 290.38,-676.87 299.22,-669.52 309.07,-663.48 319.53,-658.53"/>
<polygon fill="black" stroke="black" points="321.09,-661.67 328.86,-654.46 318.29,-655.25 321.09,-661.67"/>
</g>
<!-- AgentB&#45;&gt;Memory -->
<g id="edge4" class="edge">
<title>AgentB&#45;&gt;Memory</title>
<path fill="none" stroke="black" d="M208.18,-369.11C211.34,-411.73 225.65,-517.91 290.38,-566.87 298.62,-573.1 568.64,-595.29 708.61,-606.41"/>
<polygon fill="black" stroke="black" points="708.62,-609.92 718.87,-607.23 709.17,-602.95 708.62,-609.92"/>
</g>
<!-- AgentB_R1 -->
<g id="node7" class="node">
<title>AgentB_R1</title>
<ellipse fill="none" stroke="black" cx="484.83" cy="-530.87" rx="191.75" ry="26.74"/>
<text text-anchor="middle" x="484.83" y="-534.67" font-family="Times,serif" font-size="14.00">AgentB (R1)</text>
<text text-anchor="middle" x="484.83" y="-519.67" font-family="Times,serif" font-size="14.00">Banning homework would have a ...</text>
</g>
<!-- AgentB&#45;&gt;AgentB_R1 -->
<g id="edge8" class="edge">
<title>AgentB&#45;&gt;AgentB_R1</title>
<path fill="none" stroke="black" d="M212.23,-368.82C221.78,-399.89 245.85,-463.36 290.38,-494.87 299.55,-501.36 309.55,-506.77 320.02,-511.28"/>
<polygon fill="black" stroke="black" points="318.75,-514.54 329.34,-515.01 321.36,-508.04 318.75,-514.54"/>
</g>
<!-- AgentB_R2 -->
<g id="node9" class="node">
<title>AgentB_R2</title>
<ellipse fill="none" stroke="black" cx="484.83" cy="-458.87" rx="190.42" ry="26.74"/>
<text text-anchor="middle" x="484.83" y="-462.67" font-family="Times,serif" font-size="14.00">AgentB (R2)</text>
<text text-anchor="middle" x="484.83" y="-447.67" font-family="Times,serif" font-size="14.00">While a complete ban on homewo...</text>
</g>
<!-- AgentB&#45;&gt;AgentB_R2 -->
<g id="edge12" class="edge">
<title>AgentB&#45;&gt;AgentB_R2</title>
<path fill="none" stroke="black" d="M221.97,-368.06C237.29,-384.8 262.87,-409.61 290.38,-422.87 303.26,-429.07 317.1,-434.21 331.23,-438.47"/>
<polygon fill="black" stroke="black" points="330.48,-441.89 341.06,-441.27 332.41,-435.16 330.48,-441.89"/>
</g>
<!-- AgentB_R3 -->
<g id="node11" class="node">
<title>AgentB_R3</title>
<ellipse fill="none" stroke="black" cx="484.83" cy="-386.87" rx="187.27" ry="26.74"/>
<text text-anchor="middle" x="484.83" y="-390.67" font-family="Times,serif" font-size="14.00">AgentB (R3)</text>
<text text-anchor="middle" x="484.83" y="-375.67" font-family="Times,serif" font-size="14.00">While homework can be a valuab...</text>
</g>
<!-- AgentB&#45;&gt;AgentB_R3 -->
<g id="edge16" class="edge">
<title>AgentB&#45;&gt;AgentB_R3</title>
<path fill="none" stroke="black" d="M252.02,-356.69C275.27,-359.72 305.15,-363.61 335.68,-367.58"/>
<polygon fill="black" stroke="black" points="335.23,-371.06 345.6,-368.88 336.14,-364.11 335.23,-371.06"/>
</g>
<!-- AgentB_R4 -->
<g id="node13" class="node">
<title>AgentB_R4</title>
<ellipse fill="none" stroke="black" cx="484.83" cy="-314.87" rx="169" ry="26.74"/>
<text text-anchor="middle" x="484.83" y="-318.67" font-family="Times,serif" font-size="14.00">AgentB (R4)</text>
<text text-anchor="middle" x="484.83" y="-303.67" font-family="Times,serif" font-size="14.00">While the potential to learn a...</text>
</g>
<!-- AgentB&#45;&gt;AgentB_R4 -->
<g id="edge20" class="edge">
<title>AgentB&#45;&gt;AgentB_R4</title>
<path fill="none" stroke="black" d="M252.02,-345.05C277.17,-341.77 310.08,-337.49 343.18,-333.18"/>
<polygon fill="black" stroke="black" points="343.98,-336.61 353.45,-331.84 343.08,-329.66 343.98,-336.61"/>
</g>
<!-- AgentB_R5 -->
<g id="node15" class="node">
<title>AgentB_R5</title>
<ellipse fill="none" stroke="black" cx="484.83" cy="-242.87" rx="185.94" ry="26.74"/>
<text text-anchor="middle" x="484.83" y="-246.67" font-family="Times,serif" font-size="14.00">AgentB (R5)</text>
<text text-anchor="middle" x="484.83" y="-231.67" font-family="Times,serif" font-size="14.00">While homework restrictions ma...</text>
</g>
<!-- AgentB&#45;&gt;AgentB_R5 -->
<g id="edge24" class="edge">
<title>AgentB&#45;&gt;AgentB_R5</title>
<path fill="none" stroke="black" d="M221.97,-333.68C237.29,-316.94 262.87,-292.13 290.38,-278.87 303.51,-272.54 317.63,-267.33 332.06,-263.03"/>
<polygon fill="black" stroke="black" points="333.41,-266.28 342.08,-260.19 331.51,-259.54 333.41,-266.28"/>
</g>
<!-- AgentB_R6 -->
<g id="node17" class="node">
<title>AgentB_R6</title>
<ellipse fill="none" stroke="black" cx="484.83" cy="-170.87" rx="175.23" ry="26.74"/>
<text text-anchor="middle" x="484.83" y="-174.67" font-family="Times,serif" font-size="14.00">AgentB (R6)</text>
<text text-anchor="middle" x="484.83" y="-159.67" font-family="Times,serif" font-size="14.00">The resolution is misguided. B...</text>
</g>
<!-- AgentB&#45;&gt;AgentB_R6 -->
<g id="edge28" class="edge">
<title>AgentB&#45;&gt;AgentB_R6</title>
<path fill="none" stroke="black" d="M212.23,-332.92C221.78,-301.85 245.85,-238.38 290.38,-206.87 301.05,-199.32 312.85,-193.23 325.2,-188.32"/>
<polygon fill="black" stroke="black" points="326.58,-191.54 334.75,-184.79 324.15,-184.98 326.58,-191.54"/>
</g>
<!-- AgentB_R7 -->
<g id="node19" class="node">
<title>AgentB_R7</title>
<ellipse fill="none" stroke="black" cx="484.83" cy="-98.87" rx="187.27" ry="26.74"/>
<text text-anchor="middle" x="484.83" y="-102.67" font-family="Times,serif" font-size="14.00">AgentB (R7)</text>
<text text-anchor="middle" x="484.83" y="-87.67" font-family="Times,serif" font-size="14.00">While homework can be a valuab...</text>
</g>
<!-- AgentB&#45;&gt;AgentB_R7 -->
<g id="edge32" class="edge">
<title>AgentB&#45;&gt;AgentB_R7</title>
<path fill="none" stroke="black" d="M208.52,-332.71C212.4,-290.73 228.13,-186.64 290.38,-134.87 298.54,-128.08 307.57,-122.41 317.14,-117.69"/>
<polygon fill="black" stroke="black" points="318.81,-120.77 326.46,-113.44 315.91,-114.4 318.81,-120.77"/>
</g>
<!-- AgentB_R8 -->
<g id="node21" class="node">
<title>AgentB_R8</title>
<ellipse fill="none" stroke="black" cx="484.83" cy="-26.87" rx="191.75" ry="26.74"/>
<text text-anchor="middle" x="484.83" y="-30.67" font-family="Times,serif" font-size="14.00">AgentB (R8)</text>
<text text-anchor="middle" x="484.83" y="-15.67" font-family="Times,serif" font-size="14.00">While some argue that homework...</text>
</g>
<!-- AgentB&#45;&gt;AgentB_R8 -->
<g id="edge36" class="edge">
<title>AgentB&#45;&gt;AgentB_R8</title>
<path fill="none" stroke="black" d="M206.51,-332.7C205.42,-281.67 209.84,-135.96 290.38,-62.87 297.61,-56.31 305.63,-50.77 314.19,-46.09"/>
<polygon fill="black" stroke="black" points="315.91,-49.14 323.28,-41.53 312.77,-42.89 315.91,-49.14"/>
</g>
<!-- Judge -->
<g id="node5" class="node">
<title>Judge</title>
<ellipse fill="none" stroke="black" cx="969.02" cy="-612.87" rx="64.19" ry="18"/>
<text text-anchor="middle" x="969.02" y="-609.17" font-family="Times,serif" font-size="14.00">Judge Node</text>
</g>
<!-- Memory&#45;&gt;Judge -->
<g id="edge5" class="edge">
<title>Memory&#45;&gt;Judge</title>
<path fill="none" stroke="black" d="M868.74,-612.87C877.21,-612.87 885.84,-612.87 894.28,-612.87"/>
<polygon fill="black" stroke="black" points="894.48,-616.37 904.48,-612.87 894.48,-609.37 894.48,-616.37"/>
</g>
<!-- AgentA_R1&#45;&gt;Memory -->
<g id="edge7" class="edge">
<title>AgentA_R1&#45;&gt;Memory</title>
<path fill="none" stroke="black" d="M648.35,-1130.16C659.67,-1124.62 670.19,-1117.64 679.29,-1108.87 747.85,-1042.83 780.17,-735.98 788.65,-640.98"/>
<polygon fill="black" stroke="black" points="792.14,-641.23 789.52,-630.97 785.16,-640.63 792.14,-641.23"/>
</g>
<!-- AgentB_R1&#45;&gt;Memory -->
<g id="edge9" class="edge">
<title>AgentB_R1&#45;&gt;Memory</title>
<path fill="none" stroke="black" d="M600.56,-552.36C626.62,-558.02 654.05,-564.6 679.29,-571.87 700.7,-578.03 723.89,-586.28 743.57,-593.76"/>
<polygon fill="black" stroke="black" points="742.33,-597.04 752.92,-597.36 744.84,-590.5 742.33,-597.04"/>
</g>
<!-- AgentA_R2&#45;&gt;Memory -->
<g id="edge11" class="edge">
<title>AgentA_R2&#45;&gt;Memory</title>
<path fill="none" stroke="black" d="M646.15,-1058.67C658.25,-1053.08 669.53,-1045.94 679.29,-1036.87 738.39,-981.97 776.19,-727.37 787.45,-641.35"/>
<polygon fill="black" stroke="black" points="790.94,-641.63 788.75,-631.27 784,-640.74 790.94,-641.63"/>
</g>
<!-- AgentB_R2&#45;&gt;Memory -->
<g id="edge13" class="edge">
<title>AgentB_R2&#45;&gt;Memory</title>
<path fill="none" stroke="black" d="M632.41,-475.87C648.75,-480.74 664.74,-486.95 679.29,-494.87 719.76,-516.89 754.05,-558.84 773.58,-586.33"/>
<polygon fill="black" stroke="black" points="770.81,-588.48 779.39,-594.7 776.56,-584.49 770.81,-588.48"/>
</g>
<!-- AgentA_R3&#45;&gt;Memory -->
<g id="edge15" class="edge">
<title>AgentA_R3&#45;&gt;Memory</title>
<path fill="none" stroke="black" d="M642.36,-987.58C655.81,-981.9 668.41,-974.48 679.29,-964.87 776.45,-879.01 789.8,-709.12 791.13,-641.56"/>
<polygon fill="black" stroke="black" points="794.63,-641.3 791.25,-631.26 787.63,-641.22 794.63,-641.3"/>
</g>
<!-- AgentB_R3&#45;&gt;Memory -->
<g id="edge17" class="edge">
<title>AgentB_R3&#45;&gt;Memory</title>
<path fill="none" stroke="black" d="M638.79,-402.29C653.19,-407.51 666.98,-414.24 679.29,-422.87 736.59,-463.06 769.03,-542.82 782.88,-585.08"/>
<polygon fill="black" stroke="black" points="779.58,-586.25 785.93,-594.73 786.25,-584.14 779.58,-586.25"/>
</g>
<!-- AgentA_R4&#45;&gt;Memory -->
<g id="edge19" class="edge">
<title>AgentA_R4&#45;&gt;Memory</title>
<path fill="none" stroke="black" d="M644.99,-913.35C657.34,-908.04 668.99,-901.33 679.29,-892.87 758.51,-827.81 781.89,-698.38 788.5,-641.18"/>
<polygon fill="black" stroke="black" points="792,-641.37 789.58,-631.06 785.04,-640.63 792,-641.37"/>
</g>
<!-- AgentB_R4&#45;&gt;Memory -->
<g id="edge21" class="edge">
<title>AgentB_R4&#45;&gt;Memory</title>
<path fill="none" stroke="black" d="M635.61,-327.05C651.39,-332.77 666.36,-340.5 679.29,-350.87 754.15,-410.9 779.7,-530.48 787.68,-584.82"/>
<polygon fill="black" stroke="black" points="784.22,-585.36 789.05,-594.79 791.15,-584.4 784.22,-585.36"/>
</g>
<!-- AgentA_R5&#45;&gt;Memory -->
<g id="edge23" class="edge">
<title>AgentA_R5&#45;&gt;Memory</title>
<path fill="none" stroke="black" d="M642.06,-840.83C655.33,-835.67 667.98,-829.13 679.29,-820.87 740.85,-775.89 771.92,-686.46 784.31,-640.92"/>
<polygon fill="black" stroke="black" points="787.73,-641.68 786.87,-631.12 780.95,-639.91 787.73,-641.68"/>
</g>
<!-- AgentB_R5&#45;&gt;Memory -->
<g id="edge25" class="edge">
<title>AgentB_R5&#45;&gt;Memory</title>
<path fill="none" stroke="black" d="M643.63,-256.94C656.58,-262.5 668.72,-269.68 679.29,-278.87 771.95,-359.49 787.96,-519.24 790.57,-584.3"/>
<polygon fill="black" stroke="black" points="787.08,-584.72 790.89,-594.6 794.07,-584.5 787.08,-584.72"/>
</g>
<!-- AgentA_R6&#45;&gt;Memory -->
<g id="edge27" class="edge">
<title>AgentA_R6&#45;&gt;Memory</title>
<path fill="none" stroke="black" d="M635.98,-767.91C651.17,-763.01 665.91,-756.78 679.29,-748.87 723.87,-722.53 758.37,-671.47 776.61,-639.95"/>
<polygon fill="black" stroke="black" points="779.88,-641.28 781.73,-630.85 773.78,-637.84 779.88,-641.28"/>
</g>
<!-- AgentB_R6&#45;&gt;Memory -->
<g id="edge29" class="edge">
<title>AgentB_R6&#45;&gt;Memory</title>
<path fill="none" stroke="black" d="M641.34,-183.12C655.24,-188.96 668.22,-196.7 679.29,-206.87 736.14,-259.11 775.22,-501.58 787.15,-584.77"/>
<polygon fill="black" stroke="black" points="783.69,-585.35 788.56,-594.76 790.63,-584.37 783.69,-585.35"/>
</g>
<!-- AgentA_R7&#45;&gt;Memory -->
<g id="edge31" class="edge">
<title>AgentA_R7&#45;&gt;Memory</title>
<path fill="none" stroke="black" d="M618.04,-694.42C638.85,-689.77 659.89,-684 679.29,-676.87 707.5,-666.5 736.89,-649.37 758.44,-635.44"/>
<polygon fill="black" stroke="black" points="760.45,-638.31 766.88,-629.89 756.6,-632.46 760.45,-638.31"/>
</g>
<!-- AgentB_R7&#45;&gt;Memory -->
<g id="edge33" class="edge">
<title>AgentB_R7&#45;&gt;Memory</title>
<path fill="none" stroke="black" d="M646.42,-112.78C658.47,-118.43 669.66,-125.67 679.29,-134.87 745.45,-198.08 779.21,-491.6 788.37,-584.56"/>
<polygon fill="black" stroke="black" points="784.9,-585.01 789.34,-594.63 791.87,-584.34 784.9,-585.01"/>
</g>
<!-- AgentA_R8&#45;&gt;Memory -->
<g id="edge35" class="edge">
<title>AgentA_R8&#45;&gt;Memory</title>
<path fill="none" stroke="black" d="M638.41,-626.87C663.22,-624.59 688.03,-622.32 710.21,-620.28"/>
<polygon fill="black" stroke="black" points="710.57,-623.76 720.21,-619.36 709.93,-616.79 710.57,-623.76"/>
</g>
<!-- AgentB_R8&#45;&gt;Memory -->
<g id="edge37" class="edge">
<title>AgentB_R8&#45;&gt;Memory</title>
<path fill="none" stroke="black" d="M648.09,-41.14C659.55,-46.76 670.16,-53.89 679.29,-62.87 754.85,-137.2 782.65,-482.46 789.3,-584.44"/>
<polygon fill="black" stroke="black" points="785.81,-584.83 789.94,-594.59 792.8,-584.39 785.81,-584.83"/>
</g>
</g>
</svg>
